<svg width="42" height="29" viewBox="0 0 42 29" fill="none" xmlns="http://www.w3.org/2000/svg">
<path d="M16.8744 0.779388H8.95374L1.03311 14.5L8.95374 28.2206H16.8744L28.7644 7.63064L32.7337 14.5L24.8131 28.2206H32.7337L40.6544 14.5L32.7337 0.779388H24.8131L12.9231 21.3694L8.95374 14.5L16.8744 0.779388Z" fill="white"/>
<path opacity="0.8" d="M20.8438 7.63064L24.795 0.779388L28.7644 7.63064H20.8438Z" fill="#2056A9"/>
<path opacity="0.7" d="M20.8438 7.63062L24.795 14.5L28.7644 7.63062H20.8438Z" fill="#2C8FE7"/>
<path opacity="0.6" d="M16.8744 14.5L20.8438 7.63062L24.795 14.5H16.8744Z" fill="#2061C6"/>
<path opacity="0.68" d="M8.95374 0.779388L12.9231 7.63064L16.8744 0.779388H8.95374Z" fill="#1E88E5"/>
<path opacity="0.76" d="M5.0025 7.63064L8.95375 0.779388L12.9231 7.63064H5.0025Z" fill="#1E88E5"/>
<path opacity="0.84" d="M5.0025 7.63062L8.95375 14.5L12.9231 7.63062H5.0025Z" fill="#1E88E5"/>
<path opacity="0.94" d="M1.03311 14.5L5.00249 7.63062L8.95374 14.5H1.03311Z" fill="#1E88E5"/>
<path opacity="0.65" d="M16.8744 14.5L20.8438 21.3694L24.795 14.5H16.8744Z" fill="#0E3B80"/>
<path opacity="0.7" d="M12.9231 21.3694L16.8744 14.5L20.8438 21.3694H12.9231Z" fill="#0D47A1"/>
<path opacity="0.8" d="M12.9231 21.3694L16.8744 28.2206L20.8438 21.3694H12.9231Z" fill="#2056A9"/>
<path d="M8.95374 28.2206L12.9231 21.3694L16.8744 28.2206H8.95374Z" fill="#0D47A1"/>
<path d="M1.03311 14.5L5.00249 21.3694L8.95374 14.5H1.03311Z" fill="#1E88E5"/>
<path opacity="0.68" d="M32.7337 28.2206L28.7644 21.3694L24.8131 28.2206H32.7337Z" fill="#1E88E5"/>
<path opacity="0.76" d="M36.685 21.3694L32.7338 28.2206L28.7644 21.3694H36.685Z" fill="#1E88E5"/>
<path opacity="0.94" d="M40.6544 14.5L36.685 21.3694L32.7338 14.5H40.6544Z" fill="#1E88E5"/>
<path d="M40.6544 14.5L36.685 7.63062L32.7338 14.5H40.6544Z" fill="#1E88E5"/>
<path opacity="0.92" d="M12.9231 21.3694L8.95375 14.5L5.0025 21.3694H12.9231Z" fill="#0D47A1"/>
<path d="M12.9231 21.3694L8.95375 28.2206L5.0025 21.3694H12.9231Z" fill="#0D47A1"/>
<path d="M24.795 0.779388L28.7644 7.63064L32.7338 0.779388H24.795Z" fill="#2056A9"/>
<path d="M36.685 7.63064L32.7338 0.779388L28.7644 7.63064H36.685Z" fill="#0D47A1"/>
<path opacity="0.92" d="M36.685 7.63062L32.7338 14.5L28.7644 7.63062H36.685Z" fill="#0D47A1"/>
</svg>
